<svg id="Layer_1" data-name="Layer 1" xmlns="http://www.w3.org/2000/svg" viewBox="0 0 115 115"><defs><style>.cls-1{fill:#00a0e3;}.cls-2{fill:#fff;}</style></defs><polygon class="cls-1" points="106.77 83.36 60.08 111.36 12.49 84.92 11.6 30.49 58.28 2.5 105.87 28.93 106.77 83.36"/><path class="cls-2" d="M73.73,57.07a17.09,17.09,0,0,0-1.53,1.16c-1.9,1.84-3.76,3.73-5.65,5.56a1.69,1.69,0,0,1-1,.47H38.83l-.18,0a4.34,4.34,0,0,0-2.84-3c-.16,0-.29-.45-.3-.68V48.87a1.1,1.1,0,0,1,.55-.73,3.83,3.83,0,0,0,2.26-2.2c.23-.64.58-.73,1.17-.73H69.81c.52,0,.84.1,1,.66a3.85,3.85,0,0,0,2.3,2.3,1,1,0,0,1,.55.69C73.73,51.57,73.73,54.39,73.73,57.07Zm-19-7.93a5.58,5.58,0,1,0,5.52,5.64h0A5.6,5.6,0,0,0,54.69,49.14Zm-16,5.6a3.19,3.19,0,0,0,3.19,3.17h0a3.23,3.23,0,0,0,3.15-3.17,3.18,3.18,0,0,0-6.36-.07Zm31.83,0a3.18,3.18,0,1,0-3.17,3.18,3.17,3.17,0,0,0,3.17-3.18ZM61.33,48.4a10.59,10.59,0,0,0,2,0c.33-.07.59-.48.89-.73-.28-.28-.54-.77-.84-.8a31.88,31.88,0,0,0-3.91,0c-.28,0-.54.48-.8.74.28.27.53.73.85.78A8.9,8.9,0,0,0,61.33,48.4ZM47,62.67a10.59,10.59,0,0,0,2,0c.32-.06.57-.49.86-.73-.29-.26-.56-.73-.86-.73a26.92,26.92,0,0,0-3.81,0c-.3,0-.57.49-.85.73.28.26.54.68.86.73A8.17,8.17,0,0,0,47,62.67ZM66.72,48.59c.79-.16,1.39-.21,1.42-1s-.52-.82-1.1-.81-1.25,0-1.19.77C65.89,47.94,66.41,48.26,66.72,48.59Zm-25,12.32c-.8.15-1.39.22-1.4,1s.54.8,1.11.8,1.25,0,1.18-.79C42.59,61.54,42,61.24,41.72,60.91Z"/><path class="cls-2" d="M32.38,67.46V42.05H76.85V67.41h-5c.91-.86,1.63-1.56,2.38-2.2a3.12,3.12,0,0,0,1.1-2.55q0-7.24,0-14.47c0-.9-.2-1.38-1.21-1.47a2.2,2.2,0,0,1-2-2.06,1,1,0,0,0-1-1.09.89.89,0,0,0-.23,0H38.22a1,1,0,0,0-1.13.8.78.78,0,0,0,0,.22,2.24,2.24,0,0,1-2.19,2.14,1,1,0,0,0-1,.94.86.86,0,0,0,0,.16V61.66a.94.94,0,0,0,.82,1.05h.09A2.31,2.31,0,0,1,37.08,65c.13.87.73.9,1.36.9H63.55a3.08,3.08,0,0,1,.73.06,3.18,3.18,0,0,1-3,1.54c-9.24-.08-18.47,0-27.72,0Z"/><path class="cls-2" d="M58.6,54.75a4,4,0,1,1-3.94-4h0A4,4,0,0,1,58.6,54.75Z"/><path class="cls-2" d="M43.46,54.71A1.58,1.58,0,0,1,41.9,56.3h0a1.62,1.62,0,0,1-1.58-1.62,1.66,1.66,0,0,1,1.57-1.56A1.61,1.61,0,0,1,43.46,54.71Z"/><path class="cls-2" d="M67.35,56.29a1.56,1.56,0,0,1-1.55-1.57v-.06a1.6,1.6,0,0,1,1.57-1.54A1.63,1.63,0,0,1,69,54.73a1.58,1.58,0,0,1-1.6,1.56Z"/><path class="cls-2" d="M91.75,69.14v2a12.36,12.36,0,0,1-.94,3.83,12.63,12.63,0,0,1-5.24,6,12.4,12.4,0,0,1-5,1.69l-.47.06H78.16l-.41,0a12.67,12.67,0,0,1-8.9-5.12,12.32,12.32,0,0,1-2.44-8.16,11.55,11.55,0,0,1,.63-3.3,12.34,12.34,0,0,1,3.3-5.13,12.54,12.54,0,0,1,8.21-3.51,12.07,12.07,0,0,1,3.17.27,12.79,12.79,0,0,1,8.72,6.73,12.46,12.46,0,0,1,1.23,4C91.69,68.66,91.72,68.89,91.75,69.14ZM77,71.77H73.79a.14.14,0,0,0-.16.15.13.13,0,0,0,0,.1l.07.08,5.18,5.12c.13.13.2.13.33,0l4.53-4.52.66-.65c.07-.06.12-.12.09-.22a.19.19,0,0,0-.21-.1H81.2V62.94c0-.19,0-.22-.24-.22H77.14a.15.15,0,0,0-.16.13h0v8.91Z"/></svg>