<svg id="Layer_1" data-name="Layer 1" xmlns="http://www.w3.org/2000/svg" viewBox="0 0 115 115"><defs><style>.cls-1{fill:#00a0e3;}.cls-2{fill:#fff;}</style></defs><polygon class="cls-1" points="105.86 84.19 59.26 112.14 11.76 85.75 10.87 31.42 57.47 3.47 104.97 29.86 105.86 84.19"/><path class="cls-2" d="M55.11,30.34l.9-.12c.91,0,1.81.14,2.71.17a7.45,7.45,0,0,1,1.16.06,12.23,12.23,0,0,0,1.6.17,1.65,1.65,0,0,1,1.38,1.05,5.19,5.19,0,0,1,.17.65,10.6,10.6,0,0,1,.36,3.45,4.29,4.29,0,0,0,0,1.29,8.09,8.09,0,0,0,.3,2.19A2.19,2.19,0,0,0,65,40.55a5.16,5.16,0,0,0,1.15.44,1.54,1.54,0,0,0,1.23-.23c1.5-.81,2.92-1.79,4.38-2.63a3.81,3.81,0,0,1,2.43-.79,3.2,3.2,0,0,1,1.47,1.25c.79.94,1.52,1.94,2.35,2.85a9.39,9.39,0,0,0,.63.74,1.61,1.61,0,0,1,.49,1.51,3.43,3.43,0,0,1-.57.8c-.4.54-.86,1-1.27,1.55-.36.37-.64.8-1,1.16a9.16,9.16,0,0,0-.92,1.11c-.44.52-.88,1-1.33,1.54s0,1.26.13,1.88c.1.35.27.67.37,1a1,1,0,0,0,.77.73,11.86,11.86,0,0,0,1.31.31c.54.12,1.07.28,1.62.37l2.58.64.52.16.16,0c1.36.48,1.61.86,1.63,2.36A17.76,17.76,0,0,1,83,59.55c-.1.73-.11,1.46-.21,2.2-.09.5-.38.37-.68.19-.41-.34-.86-.63-1.3-.95-.63-.45-1.25-.93-1.9-1.35l-.41-.31c-.62-.47-.62-.47-1.08.16-.38.48-.73,1-1.11,1.46-.19.24-.36.49-.57.73-.55.73-1.09,1.46-1.66,2.19l-.15.18c-.59.74-1.14,1.56-1.77,2.29-.09.12-.17.25-.27.37-.48.63-1,1.27-1.42,1.9-.26.34-.55.66-.8,1s-.62.82-.92,1.24c-.58.73-1.16,1.46-1.7,2.23l-.65.85c-.51.66-.66.68-1.26.1-.35-.39-.81-.64-1.14-1a13.57,13.57,0,0,1-1.13-1c-.53-.37-.92-.89-1.47-1.24a6.85,6.85,0,0,0-.89-.81c-.45-.41-.45-.41-.82.08-.2.27-.43.51-.61.79a6.41,6.41,0,0,1-.67.83c-.38.49-.73,1-1.13,1.47L56.1,74.58a8.8,8.8,0,0,0-.65.83c-.42.5-.79,1-1.2,1.54-.12.16-.34.31-.17.57.61.65,1.35,1.16,2,1.76a6.66,6.66,0,0,1,.59.49,10.8,10.8,0,0,1,1.7,1.54.9.9,0,0,1,.11.73c-.06.16-.13.32-.2.47-.17.34-.28.73-.46,1a1.29,1.29,0,0,1-1.46.73c-.87,0-1.73-.16-2.6-.16s-1.39-.16-2.09-.25a1.31,1.31,0,0,0-.44-.07,2,2,0,0,1-2.09-1.6,1.21,1.21,0,0,1,0-.18,13.5,13.5,0,0,1-.35-2.19,1.5,1.5,0,0,1,0-.3,35.61,35.61,0,0,0-.09-4,2.11,2.11,0,0,0-1.58-2.13,2,2,0,0,0-2.39.31c-1.24.73-2.42,1.46-3.65,2.25-.25.13-.47.29-.73.4a3.89,3.89,0,0,1-2.4.67c-.93-.18-1.26-.92-1.71-1.57a1.35,1.35,0,0,0-.46-.49l-.11-.12a11.6,11.6,0,0,0-1.34-1.71c-.35-.33-.6-.73-.94-1.07A1.41,1.41,0,0,1,33,70.87a2.39,2.39,0,0,1,.45-.79c.37-.49.8-.93,1.15-1.46s.74-.85,1.09-1.28a9.76,9.76,0,0,0,.87-1A8.49,8.49,0,0,0,38,64.54l.15-.38A3.29,3.29,0,0,0,38.08,62a1.6,1.6,0,0,0-1.22-1c-.38-.08-.73-.19-1.15-.26l-1.9-.46a22.65,22.65,0,0,1-3.13-.86,8.55,8.55,0,0,1-.86-.42,1.67,1.67,0,0,1-.89-1.68c.08-.73.3-1.46.33-2.24a24.19,24.19,0,0,1,.22-2.49,2.46,2.46,0,0,1,.9-2,2.64,2.64,0,0,1,.9-.29c.73-.1,1.46-.19,2.19-.26l2.43-.17a9.35,9.35,0,0,0,1.82-.23,2.53,2.53,0,0,0,1.86-1.42,2,2,0,0,0,.11-2.13,23.39,23.39,0,0,0-1.34-2.25,5.64,5.64,0,0,1-.4-.67c-.36-.52-.62-1.1-1-1.62a15.46,15.46,0,0,1-.8-1.82,1.84,1.84,0,0,1,.9-1.8,4.65,4.65,0,0,0,.73-.74,18.23,18.23,0,0,0,2.36-1.84,4.47,4.47,0,0,0,.73-.63,1.86,1.86,0,0,1,1.57-.49,3,3,0,0,1,1,.49c.46.36.89.77,1.36,1.14A13.9,13.9,0,0,1,46,36.94c.41.38.73.57,1,.89.59.39,1,1,1.58,1.38a1.06,1.06,0,0,0,1,.06c.64-.27,1.33-.41,2-.66a2,2,0,0,0,1.06-1.71c.14-.73.24-1.46.44-2.14.39-1.13.73-2.28,1.11-3.41C54.32,30.87,54.51,30.4,55.11,30.34Z"/><path class="cls-2" d="M60.4,72.92a.87.87,0,0,0,.44.36,5,5,0,0,1,1.6,1.47,3.58,3.58,0,0,0,.77.68c.36.1.56.44.87.62.48.53,1.08,1,1.59,1.46.17.17.36.36.61.09a3.83,3.83,0,0,0,.6-.73,5,5,0,0,0,.44-.59c.24-.29.46-.59.68-.91.48-.62,1-1.24,1.47-1.89.12-.16.23-.33.37-.49a16.15,16.15,0,0,1,1.77-2.19l.1-.12a3,3,0,0,1,.68-1,.79.79,0,0,0,.35-.45,2.06,2.06,0,0,1,.67-.82,2.94,2.94,0,0,0,.67-.89,8.94,8.94,0,0,1,1-1.53c1-1.28,1.94-2.58,2.92-3.85.27-.22.5-.11.73.07a18.49,18.49,0,0,1,2.33,1.82h0a7.33,7.33,0,0,1,1.57,1c.25.17.23.39.05.62a7.86,7.86,0,0,1-.73.8c-1,1.46-2.2,2.79-3.31,4.21a2.59,2.59,0,0,0-.38.48c-.49.58-1,1.18-1.46,1.79-.28.33-.55.66-.8,1s-.66.85-1,1.26-.73.93-1.11,1.35-.46.62-.73.92c-.81,1-1.62,2-2.42,3a1.71,1.71,0,0,1-.35.36.74.74,0,0,0-.37.43,1.81,1.81,0,0,1-.55.73,1,1,0,0,0-.46.53,1.13,1.13,0,0,1-.44.59.77.77,0,0,0-.35.44,1.4,1.4,0,0,1-.59.66,1.22,1.22,0,0,0-.5.53c-.22.5-.48.52-.85.13a8.12,8.12,0,0,0-.86-.69.64.64,0,0,1-.52-.31c-.86-.73-1.68-1.46-2.56-2.12a7,7,0,0,0-1.24-1,4.5,4.5,0,0,1-.73-.78l-.11-.11a13.34,13.34,0,0,1-2.59-2.15l-.11-.1a1,1,0,0,1-.36-.3.68.68,0,0,1,0-.7,2,2,0,0,0,.22-.41,19.22,19.22,0,0,1,2.89-3.35A.14.14,0,0,0,60.4,72.92Z"/><path class="cls-1" d="M51.69,52.79c1.06.44,1.67.3,2-.46a8.08,8.08,0,0,0,.18-1.2.82.82,0,0,1,.46-.65,1.53,1.53,0,0,1,2,.48,7.44,7.44,0,0,0,.52.73c.43.47.62.51,1.23.28.28-.12.5-.33.78-.45a1.25,1.25,0,0,1,1.61.45l.22.46a2.92,2.92,0,0,1-.12,1.31c-.18.73,0,1.11.81,1.37.44.06,1-.1,1.23.47a1.48,1.48,0,0,1,.32,1.8l-.22.21a.9.9,0,0,1-.46.31c-.73.35-.88.65-.73,1.46a.5.5,0,0,0,.05.27,1.74,1.74,0,0,0,.24.36.94.94,0,0,1,.2,1.42,1.45,1.45,0,0,1-1.56.8L60,62c-1-.42-1.36-.21-1.56.82a2.93,2.93,0,0,1-.22.82c-.44.78-1,1-2.05.59l-.46-.44a.6.6,0,0,1-.39-.27A1.32,1.32,0,0,0,53.93,63a1.88,1.88,0,0,1-.3.12c-.42.15-.67.77-1.28.36a2.49,2.49,0,0,1-1-.93,4.09,4.09,0,0,1,.24-1.47c0-.27-.09-.54.08-.79,0-.25-.21-.29-.34-.42a1.51,1.51,0,0,0-.95-.2,1.3,1.3,0,0,1-1.27-1.32,1.28,1.28,0,0,1,.16-.6,2.07,2.07,0,0,1,.33-.52,1.81,1.81,0,0,1,.73-.55.73.73,0,0,0,.41-.95.56.56,0,0,0-.11-.2,2.62,2.62,0,0,1-.45-.73.82.82,0,0,1-.1-1.16l.1-.1a5,5,0,0,0,.37-.63C50.91,52.25,51.36,52.83,51.69,52.79Z"/></svg>