<svg id="Layer_1" data-name="Layer 1" xmlns="http://www.w3.org/2000/svg" viewBox="0 0 115 115"><defs><style>.cls-1{fill:#00a0e3;}.cls-2{fill:#fff;}</style></defs><polygon class="cls-1" points="106.81 83.62 60.21 111.57 12.71 85.18 11.81 30.85 58.41 2.9 105.92 29.29 106.81 83.62"/><path class="cls-2" d="M68.72,87.52c-.11-.36-.23-.66-.3-1-.52-2.07-.94-2.49-3.08-2.68a2.09,2.09,0,0,0-1.2.67c-1.46,1.47-1.46,1.47-3.26.39a10.45,10.45,0,0,1-1.1-.73c.08-.31.14-.61.23-.91.66-2.25.64-2.39-1.27-3.88a1.44,1.44,0,0,0-1.11-.16c-2.42.54-2.42.56-3.59-1.66-.12-.24-.22-.49-.4-.86a8.62,8.62,0,0,0,.87-.73c1.37-1.31,1.6-2.23.66-3.9a2.46,2.46,0,0,0-1.73-.83c-1.73-.14-1.35-1.34-1.46-2.41s.4-1.61,1.46-1.8c.73-.13,1.69,0,1.87-1.23s1-2.47-.64-3.35a7,7,0,0,1-1.08-1l1.75-3c1.46.17,2.68,1.33,4.22-.24s.31-2.67.19-4.15l2.93-1.72a10,10,0,0,1,.73.73c1.59,1.69,1.88,1.8,4,.85a2.27,2.27,0,0,0,.86-1.54c.18-1.19.61-1.75,1.93-1.7s2.19.09,2.39,1.69c.12,1.15,2.19,2.59,3.2,2.14a10.68,10.68,0,0,0,2.32-2.06l1.15.57c1.9,1,1.81,1,1.31,3a2,2,0,0,0,.37,1.62c.73.68,1.14,2.08,2.63,1.35a13.31,13.31,0,0,1,1.85-.6l1.73,2.93c-.6,1.32-2.5,1.6-1.9,3.77s2.19,1.7,3.48,2.35c0,.41.05.87.06,1.32,0,2.12,0,2.2-2,2.58-.83.17-1.25.54-1.31,1.32s-1,1.76.17,2.73c1.6,1.32,1.55,2.57,0,4-.29.25-1,.16-1.47,0a3,3,0,0,0-3.65,1.57,3.09,3.09,0,0,0,.29,2,1.26,1.26,0,0,1-.47,1.72.8.8,0,0,1-.16.08c-2,1.19-1.94,1.23-3.58-.44-.81-.83-3.49-.33-3.83.73-.24.73-.42,1.46-.63,2.25,0,.06-.15.13-.22.13C70.87,87.53,69.86,87.52,68.72,87.52ZM76.35,69.2a6,6,0,1,0-6,6h.11A6,6,0,0,0,76.35,69.2ZM80,71.13c.63,0,1.46.25,1.85-.07s.25-1.21.34-1.85C80.07,68.93,80,69,80,71.13ZM58.58,69.18c2.27.29,2.35.22,2.12-1.75L58.9,67Zm8,8.91L65.73,80l2.12.73.46-2Zm6.64,2.71-.63-2.28c-.65.25-1.37.33-1.69.73s-.09,1.38.16,1.46a6.58,6.58,0,0,0,2.17.09ZM67.68,57.73l.47,2,1.71-.2V57.45Zm6.58,2.57.82-2-2.19-.61-.39,2ZM60.87,62.23l-1.08,2,1.82.9,1-1.62ZM79.1,64.92l.67,1.7,2-.5L81,64Zm-.88,10,1.68,1.21L81,74.23l-1.85-.87Zm-2.29,4.7,1.86-1.3-1.32-1.63-1.5,1ZM59.85,74.44l1.88-1L61,71.73l-2,.62Zm5-15.61L63,60.06l1.34,1.63,1.54-1.09Zm-.41,18L63,75.55,61.5,77l1.65,1.46Zm13.2-16.91-1.26,1.64,1.39,1.29,1.52-1.35Z"/><path class="cls-2" d="M73.16,35.36v13.4c-1.6,0-3.15,0-4.7,0-1.19,0-1.81.43-1.89,1.63a6.64,6.64,0,0,1-.23.93c-.16,1-.56,1.19-1.33.45-2-1.89-2-1.89-4.39-.56a14.07,14.07,0,0,0-2.19,1.41,13.66,13.66,0,0,0-1.51,1.88H38.49V44H49.93V41.9H38.5V35.33ZM52,52.62v-4.7C52,46.27,53,45,54.53,45c4-.07,8,0,12.23,0l-1.91,2.06,1.26,1.27L70.49,44,66,39.41l-1.26,1.16,1.94,2.23H55.18c-2.66,0-4.8,1.46-5.12,3.77a47,47,0,0,0-.05,6ZM45,40h2V38.08H45ZM51,40v-1.9h-2V40ZM43.1,40V38.08H41.2V40Z"/><path class="cls-2" d="M34.32,56.59H54.05c-.73,1.32-1.4,2.55-2.13,3.73s-.83,2.19.5,3a5.7,5.7,0,0,1,.9,1H36.92c-2.92,0-4.38-1.46-4.38-4.3V35.64c0-2.85,1.38-4.24,4.21-4.24H74.86c2.75,0,4.19,1.46,4.19,4.15V49.43c0,.35,0,.73-.06,1.06-1.36-.09-1.71-.78-1.69-2,.07-4.15,0-8.31,0-12.46,0-2.2-.73-2.89-2.93-2.93H37.11c-2.2,0-2.93.73-2.93,2.93V55.25C34.23,55.63,34.29,56.07,34.32,56.59Z"/><path class="cls-2" d="M50,66.42v4.76c0,1.07.31,1.78,1.52,1.83a5.06,5.06,0,0,1,1.21.28c.78.25,1,.66.3,1.26a.44.44,0,0,1-.11.09c-1.54,1.08-2.26,2.3-.45,4a6.81,6.81,0,0,1-1.18.22H42.53c-2.48,0-3.93-1.34-4.07-3.72h4.67a1.22,1.22,0,0,0,1.4-1c.67-2,1.41-3.89,2.12-5.84C47.42,66.22,47.42,66.22,50,66.42Z"/></svg>