<svg id="Layer_1" data-name="Layer 1" xmlns="http://www.w3.org/2000/svg" viewBox="0 0 2488.15 687.17"><defs><style>.cls-1{fill:#fff;}.cls-2{fill:#e44131;}</style></defs><path class="cls-1" d="M1782.25,278.49l-86.4,182.92h-36.06l-86.44-182.92h-25.3V244.94h105.71v33.55h-37L1678,410.62l61.24-132.13h-37.32V244.94h105.67v33.55Z"/><path class="cls-1" d="M2025.89,460.16H1930V426.61h31.64l-14.56-32h-94.78l-14.25,32h28.78v33.55h-90.62V426.61h21.3l69-148.25h-31.65V244.94h82.92l83.79,181.67H2026Zm-126.59-170-32.58,72.16h65.52Z"/><path class="cls-1" d="M2255.16,278.49V460.16h-29.74L2102.76,315.52v111h26.91v33.62h-92V426.61h27.23V278.36h-27.23V244.94h53.17l126.27,150.63V278.49h-27.3V244.94h92.08v33.55Z"/><path class="cls-1" d="M2404,338.3c42.41,7,67.1,26.59,67.1,62.33,0,39.55-29.75,63.91-78.8,63.91-32.22,0-54.43-10.44-69-26.91v22.56h-35.45V389.9h35.45c18.05,25.3,33.23,39.87,68.36,39.87,24,0,40.19-10.77,40.19-27.2,0-12.35-7.93-25-33.87-29l-41.45-7c-43.06-6.64-63.62-28.78-63.62-61.23,0-39.26,30.07-64.88,79.12-64.88,26.91,0,48.76,7.61,63.3,23.43v-19h32.55v63.62h-34.81c-10.44-19-26.91-35.45-59.17-35.45-26.55,0-41.12,11.41-41.12,30.07,0,17.4,12.89,25.78,38,29.74Z"/><path class="cls-1" d="M625.88,452.39h35.45v12.89H576.09V452.39h35.13V263.15H576.09V250.26h85.15v12.89H625.79Z"/><path class="cls-1" d="M911,263.15V465.38H897.11l-150-190.82V452.39h35.45v12.89H697.43V452.39h35.13V263.15H697.43V250.26h48.12l151,192.08V263.15H861.37V250.26h85.12v12.89Z"/><path class="cls-1" d="M1076.46,351.78c36.71,6,58,25.78,58,55.36,0,38-30.78,63.07-77.51,63.07-38.93,0-65.84-15.18-79.44-41.44v36.61H963.15v-68h14.24c9.48,38,35.13,59.17,79.12,59.17,37.64,0,63-19.63,63-48.73,0-21.53-15.51-37.35-45.9-42.41l-44.6-7.29c-40.83-6.67-59.17-26.26-59.17-54.11,0-35.13,29.42-58.56,74.12-58.56,35.13,0,58.85,12.67,70.91,33.55V250.19h13.27v55.66H1114.2c-7.61-28.49-29.42-47.47-69.61-47.47-36.1,0-59.17,18.05-59.17,45.57,0,21.21,14.89,35.45,49.37,41.15Z"/><path class="cls-1" d="M1354.59,264v43.83H1341V264h-72.93V452.49h42.73v12.89h-99.55V452.49h42.09V264h-72.77v43.83H1167V250.19h188.11V264Z"/><path class="cls-1" d="M1364.74,452.33l94.46-202.14h14.44l94.49,202.14h29.65v12.89h-88V452.33h41.89L1466.39,269l-85.08,183.32h41.89v12.89h-88V452.33Z"/><path class="cls-2" d="M310.89,198.73v65.45c1.87,0,3.45.39,5.06.39,19.34,0,38.87,0,58.3-.49a48.61,48.61,0,0,1,30.52,8.83,139.21,139.21,0,0,1,22.14,18.83c18.53,20.36,36.67,41.09,51.56,64.45C485.6,367.24,491.94,378.75,494,392a156.74,156.74,0,0,1,1.28,23.43c0,11.95,0,23.94-.9,35.83-1.25,15.09-11.12,26.27-25,28.46a168.5,168.5,0,0,1-23.88.77c-7.19,0-14.41,0-21.59-.22-2.45,0-3.23.87-3.61,3.22a41,41,0,0,1-20,30.55c-19.05,11.22-43.06,3.23-52.73-17.75a65.74,65.74,0,0,1-4-13.22c-.45-2.06-1.16-2.87-3.22-2.87h-192c-3.45,0-4.93.55-5.71,4.55-3.22,16.37-12.12,28.39-28.62,33.06C95,523.2,75.4,512,68.54,492.39a33.05,33.05,0,0,1-2.16-8.58c-.23-3.22-1.87-3.61-4.52-3.61H16.42V198.73Zm-17,264.62V219.9c0-2.74,0-4.77-3.89-4.77q-126.66.19-253.32,0c-3.22,0-3.86,1.1-3.86,4v240c0,3.22.77,4.29,4.06,4.19,8.63-.19,17.27-.29,25.78,0a6.19,6.19,0,0,0,7-4.64c6.45-14.86,17.53-24.07,34.19-24.69s30.27,9.25,36.52,25.24a5.5,5.5,0,0,0,6.19,4.15q70.89-.18,142.12,0Zm17.31-181.61V463.35c9.67,0,19.34-.2,28.78,0a6.22,6.22,0,0,0,7-4.67c6.45-15,17.79-24.18,34.61-24.66,16.12-.48,30,9.67,36.29,25.78a4.67,4.67,0,0,0,5.26,3.64h37.06c11.7,0,17.14-4.7,17.92-16.43.67-10.64.67-21.34.64-32a124.39,124.39,0,0,0-1.13-19.95c-1.87-11.22-7.44-21-13.56-30.43a496.21,496.21,0,0,0-47.83-59.49,148.3,148.3,0,0,0-20.27-17.69A30.87,30.87,0,0,0,376.6,281l-62.13.62ZM131.7,476.37a53.67,53.67,0,0,0-1.29-8c-3.22-10.7-9.67-18.15-20.91-20.43a23.91,23.91,0,0,0-24,9,31,31,0,0,0-1.22,37.93,24.81,24.81,0,0,0,34.45,6.71,25.78,25.78,0,0,0,2.06-1.55A30.06,30.06,0,0,0,131.7,476.37Zm277.16.45c-.39-2.64-.55-5.35-1.19-8-3.22-13.5-16.73-23.17-28.81-20.92A26.61,26.61,0,0,0,357,467.8a29,29,0,0,0,7.77,30.81,24.56,24.56,0,0,0,34.73,0l.3-.3a30.34,30.34,0,0,0,9.16-21.53Z"/><path class="cls-2" d="M55.77,238.17h64.46a67.83,67.83,0,0,1-.19,9.67c0,.81-2.42,1.87-3.74,1.87H73.05c-5.77,0-5.77,0-5.77,5.9v43.22c0,3.8-1.16,5.09-4.84,4.67a63,63,0,0,0-6.73,0Z"/><path class="cls-2" d="M416.82,377.85l-53.14-1.45V316.68A30.39,30.39,0,0,1,383,323.12c8.84,7.45,16.92,15.76,25.79,23.31C418.76,355,417.56,366.25,416.82,377.85Z"/></svg>