<svg id="Layer_1" data-name="Layer 1" xmlns="http://www.w3.org/2000/svg" viewBox="0 0 115 115"><defs><style>.cls-1{fill:#00a0e3;}.cls-2{fill:#fff;}</style></defs><polygon class="cls-1" points="105.5 85.09 58.9 113.03 11.39 86.65 10.5 32.31 57.1 4.37 104.6 30.76 105.5 85.09"/><path class="cls-2" d="M63.19,80.22a9.49,9.49,0,0,0-.82.73,1,1,0,0,1-1.36.3,1.07,1.07,0,0,1-.3-.3c-1-1.06-2.06-2.09-3.12-3.11-.69-.66-.69-1.27,0-1.85a1.11,1.11,0,0,0,.31-1.44c-.25-.64-.56-1-1.25-.88-1,.09-1.37-.42-1.34-1.4.06-1.39.06-2.77,0-4.16,0-1,.38-1.28,1.3-1.35a1.86,1.86,0,0,0,1.19-.68,1,1,0,0,0,0-1.46,1.09,1.09,0,0,0-.17-.13c-.73-.57-.73-1.21,0-1.87q1.55-1.48,3-3c.6-.61,1.2-.69,1.77,0a1.21,1.21,0,0,0,1.59.35c.79-.28.83-.77.81-1.41,0-.82.37-1.17,1.19-1.16h4.42c.86,0,1.32.31,1.24,1.22-.05.6,0,1.07.74,1.33s1.11.3,1.6-.28c.65-.73,1.3-.65,2,.06,1,1,1.93,2,2.92,2.93.74.66.69,1.24,0,1.83a1.09,1.09,0,0,0-.39,1.46,1.19,1.19,0,0,0,1.36.89c1-.08,1.37.43,1.34,1.41-.05,1.39,0,2.78,0,4.17,0,.86-.31,1.34-1.22,1.26a1.19,1.19,0,0,0-1.42.79,1.25,1.25,0,0,0,.43,1.68c.73.6.53,1.16-.08,1.75q-1.56,1.47-3,3c-.65.69-1.24.73-1.84,0a1.08,1.08,0,0,0-1.46-.39c-.68.27-1,.61-.92,1.34.11,1-.42,1.37-1.4,1.34-1.34,0-2.69,0-4,0-1,0-1.55-.35-1.41-1.34C65,80.61,64,80.6,63.19,80.22ZM79.4,68.63c-2.55-.62-3.52-3-1.93-5.48-.36-.25-.82-.52-1.24-.84A14.57,14.57,0,0,1,75,61.16a3.24,3.24,0,0,1-4.54-.6,3.46,3.46,0,0,1-.5-1,1,1,0,0,0-.69-.62c-.88-.07-1.77,0-2.63,0a3.22,3.22,0,0,1-5,2.35l-2.43,2.19c1.46,1.93.43,4.47-2.12,5.12v3.2c2.51.47,3.45,2.79,2.2,5.11l2.15,2.32c2.22-1.41,4.48-.47,5.27,2.1h3.14c.55-2.53,2.78-3.44,5.17-2.19L77.26,77c-1.36-2.19-.43-4.43,2.13-5.21Z"/><path class="cls-2" d="M39.2,65.36c.39.3.73.59,1.07.82s.62.36.83.28a.91.91,0,0,0,.37-.73c-.07-1.23.54-1.58,1.65-1.46a13.47,13.47,0,0,0,2.2,0c.93-.06,1.36.32,1.32,1.28a2.94,2.94,0,0,0,.32,1c.35-.13.81-.16,1-.4.73-.73,1.29-.66,1.94.07a21.84,21.84,0,0,0,1.73,1.74A1.07,1.07,0,0,1,52,69.4a1.06,1.06,0,0,1-.36.37c-.25.23-.3.67-.44,1a2.78,2.78,0,0,0,1,.35c1.08,0,1.36.51,1.3,1.46a16.26,16.26,0,0,0,0,1.71c.1,1.25,0,2.2-1.7,2-.77-.06-.84.64-.33,1.08,1.13,1,.73,1.71-.19,2.48-.31.26-.57.58-.86.86C49.16,82,49.17,82,47.68,81c-.73-.49-1.09-.08-1,.64.08,1.29-.52,1.69-1.7,1.57a11.85,11.85,0,0,0-1.46,0c-1.7,0-1.7,0-2-1.73-.13-.78-.6-.93-1.07-.38-1,1.15-1.79.76-2.58-.22a9.57,9.57,0,0,0-.78-.78c-1.29-1.27-1.29-1.27-.29-2.73.46-.73.14-1-.55-1-1.46.09-1.76-.67-1.64-1.89a8.9,8.9,0,0,0,0-1.46c-.1-1.22.16-2,1.65-1.87.73.06,1.08-.51.44-1.09-1-1-.73-1.73.18-2.53a18.28,18.28,0,0,0,1.46-1.46A8,8,0,0,1,39.2,65.36Zm9.86,2.19c-2,1.38-3.47.73-4.3-1.65H43.3a2.53,2.53,0,0,1-4.18,1.79l-1.1.89c1.32,2.19.73,3.66-1.69,4.39v1.46a2.51,2.51,0,0,1,2.39,2.63,2.56,2.56,0,0,1-.67,1.59l1,1c1.88-1.34,4-.5,4.3,1.7h1.46c.54-2.35,2.14-3,4.22-1.73l1-1c-1.23-2.24-.73-3.49,1.72-4.33V72.92a2.55,2.55,0,0,1-2.36-2.72,2.49,2.49,0,0,1,.67-1.55Z"/><path class="cls-2" d="M59.59,46.9V58.1H57.9V47.7c0-2.52-.27-2.28,2.32-2.6l-4.9-5.49L50.56,45c.14.12.19.21.24.22,1.94.16,2,.16,2,2.19V64.11H51V46.9c-.87,0-1.63,0-2.39,0-.33,0-.82-.22-.9-.45a1.32,1.32,0,0,1,.23-1.07c2.14-2.47,4.33-4.9,6.5-7.34a1,1,0,0,1,1.74,0c2.19,2.44,4.38,4.88,6.5,7.3a1.14,1.14,0,0,1,.26,1,1.41,1.41,0,0,1-.95.55C61.19,46.91,60.39,46.93,59.59,46.9Z"/><path class="cls-2" d="M77.76,53.74H76V41.58c0-2.19-.41-2.25,2.29-2.45l-4.89-5.57L68.62,39c.14.14.19.24.24.24,2,.1,2,.1,2,2V55.45H69.13V40.93c-.91,0-1.69,0-2.45,0-1-.07-1.31-.73-.67-1.46q3.33-3.86,6.78-7.58a1.34,1.34,0,0,1,1.3,0q3.45,3.74,6.76,7.58c.64.73.29,1.39-.73,1.46-.73.05-1.46,0-2.38,0Z"/><path class="cls-2" d="M41.44,53.78v8.56H39.77V54.47c0-2.19,0-2.19,2.31-2.45L37.19,46.5,32.32,52c2.28.46,2.27.46,2.26,2.82V66.65H32.9V53.79c-.86,0-1.62.05-2.37,0a1.33,1.33,0,0,1-1-.5,1.22,1.22,0,0,1,.3-1c2.15-2.47,4.33-4.89,6.49-7.31a1,1,0,0,1,1.33-.33.92.92,0,0,1,.32.33c2.2,2.47,4.39,4.92,6.58,7.41.64.74.32,1.47-.66,1.47C43.17,53.83,42.4,53.78,41.44,53.78Z"/><path class="cls-2" d="M75.09,70.25a6.75,6.75,0,0,1-6.69,6.81h-.18a6.86,6.86,0,0,1-6.88-6.83,7,7,0,0,1,6.84-6.92,6.87,6.87,0,0,1,6.91,6.82Zm-1.68.08a5.19,5.19,0,1,0-5.31,5.06h.2A5.2,5.2,0,0,0,73.41,70.33Z"/><path class="cls-2" d="M44,69.43a4.2,4.2,0,0,1,4.31,4.07v.26A4.28,4.28,0,0,1,44.16,78a4.38,4.38,0,0,1-4.39-4.38v0A4.28,4.28,0,0,1,44,69.43Zm.13,1.69a2.49,2.49,0,1,0,.06,0Z"/></svg>